# Blender v2.79 (sub 0) OBJ File: ''
# www.blender.org
mtllib car.mtl
o Cube_Cube.001
v 0.939783 0.100000 0.000000
v 0.939783 0.100000 -0.680504
v 1.569040 0.100000 -0.680504
v 1.569040 0.100000 0.000000
v 1.928320 0.151426 -0.651278
v 1.928320 0.151426 0.000000
v 1.562258 0.100000 -0.861348
v 1.829342 0.151426 -0.774312
v 1.569040 0.100000 0.680504
v 0.939783 0.100000 0.680504
v 1.928320 0.151426 0.651279
v 1.829342 0.151426 0.774312
v 1.562257 0.100000 0.861348
v -0.907662 0.100000 0.000000
v -0.907662 0.100000 0.680504
v -1.562015 0.100000 0.680504
v -1.562015 0.100000 0.000000
v -1.928385 0.144613 0.651278
v -1.928385 0.144613 0.000000
v -1.506091 0.100000 0.861348
v -1.829408 0.144613 0.774312
v -1.562015 0.100000 -0.680505
v -0.907661 0.100000 -0.680504
v -1.928385 0.144613 -0.651279
v -1.829407 0.144613 -0.774312
v -1.506090 0.100000 -0.861348
v 0.891494 1.500000 -0.639107
v 1.569040 1.189042 -0.680504
v 1.569040 0.962121 -0.842676
v 0.891494 1.345790 -0.791414
v 1.569039 1.189042 0.000000
v 1.945123 0.868192 0.000001
v 1.945123 0.868192 -0.448224
v 1.945124 0.868192 -0.680503
v 1.826144 0.869065 -0.809058
v -0.907662 1.027041 0.000000
v -0.907662 1.027041 -0.680504
v -1.562015 0.969264 -0.680504
v -1.562016 0.969264 0.000000
v -1.891958 0.864486 -0.680504
v -1.891958 0.864486 -0.448585
v -1.891959 0.864486 0.000000
v -0.907661 0.941826 -0.842676
v -1.562015 0.864486 -0.842676
v -1.785869 0.843517 -0.809059
v -1.562016 0.969264 0.680504
v -0.907662 1.027041 0.680504
v -1.562016 0.864486 0.842676
v -0.907663 0.941826 0.842676
v -1.891959 0.864486 0.448585
v -1.891959 0.864486 0.680504
v -1.785869 0.843517 0.809059
v 1.569039 1.189042 0.680505
v 1.945123 0.868192 0.680505
v 1.945123 0.868192 0.448226
v 0.891493 1.500000 0.639108
v 0.891493 1.345790 0.791414
v 1.569038 0.962121 0.842677
v 1.826142 0.868192 0.809059
v 2.000000 0.637596 0.000000
v 2.000000 0.314637 0.000000
v 2.000000 0.314637 -0.680504
v 2.000000 0.638469 -0.680504
v 1.897346 0.266806 -0.809059
v 1.897346 0.638469 -0.809059
v 1.987162 0.751405 -0.680504
v 1.987162 0.750532 -0.340252
v 1.987162 0.750532 0.000000
v 1.897346 0.751405 -0.809058
v 1.987162 0.750532 0.340253
v 1.987162 0.750532 0.680505
v 2.000000 0.637596 0.680505
v 1.897344 0.750532 0.809059
v 1.897345 0.637596 0.809059
v 2.000000 0.314637 0.680504
v 1.897345 0.266806 0.809059
v 0.891493 0.800000 0.900000
v 0.939782 0.266806 0.900000
v 1.610833 0.266806 0.900000
v 1.569039 0.637596 0.900000
v 1.569039 0.817425 0.900000
v -0.907662 0.640301 0.900000
v -0.907663 0.776321 0.900000
v -1.562016 0.690479 0.900000
v -1.562016 0.559355 0.900000
v -1.398427 0.595932 0.900000
v -1.234839 0.632508 0.900000
v -1.895096 0.690479 0.809059
v -1.897346 0.559355 0.809059
v -1.897346 0.266806 0.809059
v -1.562016 0.266806 0.900000
v -1.562016 0.413080 0.900000
v -2.000000 0.559355 0.000000
v -2.000000 0.293902 0.000000
v -2.000000 0.293902 0.680504
v -2.000000 0.559355 0.680504
v -1.982529 0.690479 0.680504
v -1.982529 0.690479 0.340252
v -1.982529 0.690479 0.000000
v -1.982529 0.690479 -0.340252
v -1.982529 0.690479 -0.680505
v -2.000000 0.559355 -0.680505
v -1.895095 0.690479 -0.809059
v -1.897345 0.559355 -0.809059
v -2.000000 0.293902 -0.680505
v -1.897345 0.266806 -0.809059
v 1.569040 0.638469 -0.900000
v 1.569040 0.818298 -0.900000
v 0.891494 0.800000 -0.900000
v 1.610834 0.266806 -0.900000
v 0.939783 0.266806 -0.900000
v -0.907661 0.640301 -0.900000
v -0.907661 0.453554 -0.900000
v -1.021388 0.567590 -0.900000
v -1.234838 0.632508 -0.900000
v -1.562015 0.559355 -0.900000
v -1.562015 0.413080 -0.900000
v -1.562015 0.266806 -0.900000
v -1.021389 0.567590 0.900000
v -0.907662 0.453554 0.900000
v -1.398426 0.595932 -0.900000
v -1.562015 0.690479 -0.900000
v -0.907661 0.776321 -0.900000
v 0.000000 0.266806 -0.900000
v 0.980338 0.100000 -0.861348
v -0.000032 0.100000 -0.861348
v 0.000000 0.800000 -0.900000
v 0.000000 0.266806 0.900000
v -0.000033 0.100000 0.861348
v 0.980337 0.100000 0.861348
v -0.000001 0.800000 0.900000
v -0.000001 1.500000 0.639107
v -0.000001 1.345790 0.791414
v 0.000000 1.500000 -0.639107
v 0.000001 1.345790 -0.791414
v 0.000000 0.100000 0.680504
v 0.000000 0.100000 0.000000
v 0.000000 0.100000 -0.680504
v -0.875178 0.100000 -0.861348
v -0.907661 0.266806 -0.900000
v -0.907662 0.266806 0.900000
v -0.875179 0.100000 0.861348
v 0.891493 1.500000 0.000000
v 0.891493 1.150000 0.856287
v 0.891494 1.150000 -0.856286
v 0.000000 1.150000 -0.856286
v -0.000001 1.150000 0.856286
v 0.000000 1.500000 0.000000
vn 0.0000 -1.0000 -0.0000
vn 0.1417 -0.9899 -0.0000
vn 0.1726 -0.9832 0.0601
vn -0.1209 -0.9927 -0.0000
vn -0.1398 -0.9876 0.0713
vn -0.0880 0.9961 -0.0000
vn -0.0887 0.8595 0.5034
vn -0.3027 0.9531 -0.0000
vn -0.2234 0.8623 0.4545
vn 0.6490 0.7608 0.0000
vn 0.2638 0.6139 0.7440
vn 0.4369 0.6136 0.6577
vn 0.9936 0.1131 0.0001
vn 0.9936 0.1129 0.0000
vn 0.7997 0.0455 0.5987
vn 1.0000 0.0000 0.0000
vn 0.9156 -0.4021 -0.0000
vn 0.7814 -0.0000 0.6240
vn 0.7276 -0.4778 0.4923
vn 0.0000 -0.0000 1.0000
vn 0.2836 0.0160 0.9588
vn 0.3157 -0.3589 0.8784
vn 0.2669 0.0000 0.9637
vn 0.2718 0.2753 0.9221
vn -0.2622 0.0011 0.9650
vn -0.2626 0.0023 0.9649
vn -0.0399 0.3197 0.9467
vn -0.2205 0.2394 0.9456
vn -0.2617 0.0000 0.9651
vn -0.2666 -0.3430 0.9007
vn -1.0000 0.0000 0.0000
vn -0.7814 0.0000 0.6240
vn -0.9016 -0.4325 -0.0000
vn -0.7072 -0.4848 0.5146
vn -0.9912 0.1321 0.0000
vn -0.8026 0.0604 0.5934
vn 0.0000 -0.2257 0.9742
vn -0.0000 0.7027 0.7115
vn -0.3332 0.7502 0.5711
vn -0.8870 0.4617 -0.0000
vn 0.9417 0.3365 0.0000
vn 0.4171 0.9089 0.0000
vn -0.0021 0.0822 0.9966
vn 0.1119 0.3357 0.9353
vn -0.0022 0.0822 -0.9966
vn 0.1121 0.3364 -0.9350
vn 0.0000 0.3145 -0.9493
vn 0.0000 0.1239 -0.9923
vn -0.0000 0.3145 0.9493
vn -0.0000 0.1239 0.9923
vn 0.0000 1.0000 0.0000
vn -0.0874 0.3192 -0.9437
vn -0.0023 0.0896 -0.9960
vn -0.0874 0.3192 0.9437
vn -0.0023 0.0896 0.9960
vn -0.4621 0.8868 -0.0000
vn 0.9416 0.3368 0.0001
vn 0.9412 0.3378 0.0005
vn 0.9414 0.3374 0.0004
vn 0.7274 0.3513 -0.5895
vn 0.7272 0.3499 0.5905
vn -0.7041 0.4301 0.5650
vn -0.7041 0.4301 -0.5650
vn 0.1726 -0.9832 -0.0601
vn -0.1398 -0.9876 -0.0713
vn 0.2638 0.6139 -0.7440
vn 0.4367 0.6148 -0.6567
vn -0.0887 0.8595 -0.5034
vn -0.2234 0.8623 -0.4545
vn 0.7814 0.0000 -0.6240
vn 0.7276 -0.4778 -0.4923
vn 0.9936 0.1132 0.0001
vn 0.7997 0.0455 -0.5987
vn -0.8026 0.0604 -0.5934
vn -0.7814 0.0000 -0.6240
vn -0.7072 -0.4848 -0.5146
vn 0.2670 0.0000 -0.9637
vn 0.2716 0.2761 -0.9220
vn 0.0000 0.0000 -1.0000
vn 0.2836 0.0159 -0.9588
vn 0.3157 -0.3589 -0.8784
vn -0.2622 0.0011 -0.9650
vn -0.2617 0.0000 -0.9651
vn -0.2666 -0.3430 -0.9007
vn -0.0399 0.3197 -0.9467
vn -0.2626 0.0023 -0.9649
vn -0.2205 0.2394 -0.9456
vn 0.0000 -0.2257 -0.9742
vn 0.0000 0.7027 -0.7115
vn -0.3332 0.7502 -0.5711
usemtl Material.003
s 1
f 1//1 4//1 9//1 10//1
f 4//2 6//2 11//2 9//2
f 9//3 11//3 12//3 13//3
f 14//1 15//1 16//1 17//1
f 17//4 16//4 18//4 19//4
f 16//5 20//5 21//5 18//5
f 36//6 39//6 46//6 47//6
f 47//7 46//7 48//7 49//7
f 39//8 42//8 50//8 51//8 46//8
f 46//9 51//9 52//9 48//9
f 31//10 53//10 54//10 55//10 32//10
f 56//11 57//11 58//11 53//11
f 53//12 58//12 59//12 54//12
f 60//13 68//13 70//14 71//14 72//14
f 72//15 71//15 73//15 74//15
f 60//16 72//16 75//16 61//16
f 61//17 75//17 11//17 6//17
f 72//18 74//18 76//18 75//18
f 75//19 76//19 12//19 11//19
f 77//20 78//20 79//20 80//20
f 80//21 79//21 76//21 74//21
f 79//22 13//22 12//22 76//22
f 80//23 74//23 73//23 81//23
f 81//24 73//24 59//24 58//24
f 82//20 83//20 84//20 85//20 86//20 87//20
f 85//25 84//26 88//26 89//25
f 83//27 49//27 48//27 84//27
f 84//28 48//28 52//28 88//28
f 85//25 89//25 90//29 91//29 92//29
f 91//30 90//30 21//30 20//30
f 93//31 94//31 95//31 96//31
f 96//32 95//32 90//32 89//32
f 94//33 19//33 18//33 95//33
f 95//34 18//34 21//34 90//34
f 93//35 96//35 97//35 98//35 99//35
f 96//36 89//36 88//36 97//36
f 119//20 120//20 82//20 87//20
f 128//37 129//37 130//37 78//37
f 131//20 128//20 78//20 77//20
f 132//38 133//38 57//38 56//38
f 136//1 10//1 130//1 129//1
f 137//1 1//1 10//1 136//1
f 128//37 141//37 142//37 129//37
f 131//20 82//20 120//20 141//20 128//20
f 132//39 47//39 49//39 133//39
f 136//1 129//1 142//1 15//1
f 137//1 136//1 15//1 14//1
f 86//20 85//20 92//20
f 99//40 98//40 50//40 42//40
f 68//41 32//41 55//41 70//41
usemtl Material.004
f 143//42 31//42 28//42 27//42
f 143//42 56//42 53//42 31//42
f 77//43 80//43 81//43 144//43
f 144//44 81//44 58//44 57//44
f 109//45 145//45 108//45 107//45
f 145//46 30//46 29//46 108//46
f 146//47 135//47 30//47 145//47
f 127//48 146//48 145//48 109//48
f 147//49 144//49 57//49 133//49
f 131//50 77//50 144//50 147//50
f 148//51 132//51 56//51 143//51
f 148//51 143//51 27//51 134//51
f 146//52 123//52 43//52 135//52
f 127//53 112//53 123//53 146//53
f 147//54 133//54 49//54 83//54
f 131//55 147//55 83//55 82//55
f 148//56 36//56 47//56 132//56
f 148//56 134//56 37//56 36//56
usemtl Material.005
f 67//57 66//58 34//58 33//59
f 70//41 55//41 54//41 71//41
usemtl Material.006
f 98//40 97//40 51//40 50//40
f 100//40 41//40 40//40 101//40
usemtl Material.007
f 66//60 69//60 35//60 34//60
f 71//61 54//61 59//61 73//61
f 97//62 88//62 52//62 51//62
f 101//63 40//63 45//63 103//63
usemtl Material.008
f 1//1 2//1 3//1 4//1
f 4//2 3//2 5//2 6//2
f 3//64 7//64 8//64 5//64
f 14//1 17//1 22//1 23//1
f 17//4 19//4 24//4 22//4
f 22//65 24//65 25//65 26//65
f 27//66 28//66 29//66 30//66
f 31//10 32//10 33//10 34//10 28//10
f 28//67 34//67 35//67 29//67
f 36//6 37//6 38//6 39//6
f 39//8 38//8 40//8 41//8 42//8
f 37//68 43//68 44//68 38//68
f 38//69 44//69 45//69 40//69
f 60//16 61//16 62//16 63//16
f 63//70 62//70 64//70 65//70
f 61//17 6//17 5//17 62//17
f 62//71 5//71 8//71 64//71
f 60//13 63//72 66//72 67//72 68//13
f 63//73 65//73 69//73 66//73
f 93//35 99//35 100//35 101//35 102//35
f 102//74 101//74 103//74 104//74
f 93//31 102//31 105//31 94//31
f 94//33 105//33 24//33 19//33
f 102//75 104//75 106//75 105//75
f 105//76 106//76 25//76 24//76
f 107//77 108//77 69//77 65//77
f 108//78 29//78 35//78 69//78
f 109//79 107//79 110//79 111//79
f 107//80 65//80 64//80 110//80
f 110//81 64//81 8//81 7//81
f 112//79 113//79 114//79 115//79
f 116//82 117//83 118//83 106//83 104//82
f 118//84 26//84 25//84 106//84
f 112//79 115//79 121//79 116//79 122//79 123//79
f 123//85 122//85 44//85 43//85
f 116//82 104//82 103//86 122//86
f 122//87 103//87 45//87 44//87
f 124//88 111//88 125//88 126//88
f 127//79 109//79 111//79 124//79
f 134//89 27//89 30//89 135//89
f 138//1 126//1 125//1 2//1
f 137//1 138//1 2//1 1//1
f 124//88 126//88 139//88 140//88
f 127//79 124//79 140//79 113//79 112//79
f 134//90 135//90 43//90 37//90
f 138//1 23//1 139//1 126//1
f 137//1 14//1 23//1 138//1
f 121//79 117//79 116//79
f 99//40 42//40 41//40 100//40
f 68//41 67//57 33//59 32//41
l 7 125
l 13 130
o Circle
v 1.278560 0.087078 0.897553
v 1.278560 0.087078 0.877955
v 1.173552 0.115215 0.877955
v 1.173552 0.115215 0.897553
v 1.278560 0.001638 0.897553
v 1.426289 0.041222 0.897553
v 1.383569 0.115215 0.897553
v 1.068544 0.297095 0.897553
v 0.983103 0.297095 0.897553
v 1.022687 0.149366 0.897553
v 1.096681 0.192087 0.897553
v 1.460440 0.402103 0.897553
v 1.534434 0.444823 0.897553
v 1.426289 0.552968 0.897553
v 1.383569 0.478975 0.897553
v 1.278560 0.507112 0.897553
v 1.278560 0.592552 0.897553
v 1.130832 0.552968 0.897553
v 1.173552 0.478975 0.897553
v 1.534434 0.149366 0.897553
v 1.460440 0.192087 0.897553
v 1.130832 0.041222 0.897553
v 1.022687 0.444824 0.897553
v 1.096681 0.402103 0.897553
v 1.574017 0.297095 0.897553
v 1.488577 0.297095 0.897553
v 1.068544 0.297095 0.877955
v 1.096681 0.402103 0.877955
v 1.460440 0.402103 0.877955
v 1.488577 0.297095 0.877955
v 1.383569 0.115215 0.877955
v 1.096681 0.192087 0.877955
v 1.383569 0.478975 0.877955
v 1.173552 0.478975 0.877955
v 1.278560 0.507112 0.877955
v 1.460440 0.192087 0.877955
v 1.130832 0.552968 0.697553
v 1.022687 0.444824 0.697553
v 1.534434 0.149366 0.697553
v 1.574017 0.297095 0.697553
v 1.130832 0.041222 0.697553
v 1.278560 0.001638 0.697553
v 0.983103 0.297095 0.697553
v 1.534434 0.444823 0.697553
v 1.426289 0.041222 0.697553
v 1.022687 0.149366 0.697553
v 1.426289 0.552968 0.697553
v 1.278560 0.592552 0.697553
v 1.278560 0.087078 -0.897553
v 1.173552 0.115215 -0.897553
v 1.173552 0.115215 -0.877955
v 1.278560 0.087078 -0.877955
v 1.383569 0.115215 -0.897553
v 1.426289 0.041222 -0.897553
v 1.278560 0.001638 -0.897553
v 1.068544 0.297095 -0.897553
v 1.096681 0.192087 -0.897553
v 1.022687 0.149366 -0.897553
v 0.983103 0.297095 -0.897553
v 1.460440 0.402103 -0.897553
v 1.383569 0.478975 -0.897553
v 1.426289 0.552968 -0.897553
v 1.534434 0.444823 -0.897553
v 1.278560 0.507112 -0.897553
v 1.173552 0.478975 -0.897553
v 1.130832 0.552968 -0.897553
v 1.278560 0.592552 -0.897553
v 1.460440 0.192087 -0.897553
v 1.534434 0.149366 -0.897553
v 1.130832 0.041222 -0.897553
v 1.096681 0.402103 -0.897553
v 1.022687 0.444824 -0.897553
v 1.488577 0.297095 -0.897553
v 1.574017 0.297095 -0.897553
v 1.096681 0.402103 -0.877955
v 1.068544 0.297095 -0.877955
v 1.488577 0.297095 -0.877955
v 1.460440 0.402103 -0.877955
v 1.383569 0.115215 -0.877955
v 1.096681 0.192087 -0.877955
v 1.383569 0.478975 -0.877955
v 1.278560 0.507112 -0.877955
v 1.173552 0.478975 -0.877955
v 1.460440 0.192087 -0.877955
v 1.022687 0.444824 -0.697553
v 1.130832 0.552968 -0.697553
v 1.574017 0.297095 -0.697553
v 1.534434 0.149366 -0.697553
v 1.278560 0.001638 -0.697553
v 1.130832 0.041222 -0.697553
v 0.983103 0.297095 -0.697553
v 1.534434 0.444823 -0.697553
v 1.426289 0.041222 -0.697553
v 1.022687 0.149366 -0.697553
v 1.426289 0.552968 -0.697553
v 1.278560 0.592552 -0.697553
vn 0.2588 0.9659 0.0000
vn 0.0000 0.0000 1.0000
vn 0.9659 -0.2588 0.0000
vn -0.9659 -0.2588 0.0000
vn -0.2588 0.9659 0.0000
vn 0.9659 0.2588 0.0000
vn -0.7071 -0.7071 0.0000
vn 0.2588 -0.9659 0.0000
vn -0.7071 0.7071 0.0000
vn 0.7071 0.7071 0.0000
vn -0.2588 -0.9659 0.0000
vn 0.7071 -0.7071 0.0000
vn -0.9659 0.2588 0.0000
vn -0.0000 0.0000 -1.0000
usemtl Material.001
s 1
f 149//91 150//91 151//91 152//91
f 149//92 153//92 154//92 155//92
f 156//92 157//92 158//92 159//92
f 160//92 161//92 162//92 163//92
f 164//92 165//92 166//92 167//92
f 155//92 154//92 168//92 169//92
f 159//92 158//92 170//92 152//92
f 163//92 162//92 165//92 164//92
f 167//92 166//92 171//92 172//92
f 169//92 168//92 173//92 174//92
f 152//92 170//92 153//92 149//92
f 172//92 171//92 157//92 156//92
f 174//92 173//92 161//92 160//92
f 156//93 175//93 176//93 172//93
f 160//94 177//94 178//94 174//94
f 155//95 179//95 150//95 149//95
f 159//96 180//96 175//96 156//96
f 163//97 181//97 177//97 160//97
f 167//98 182//98 183//98 164//98
f 169//99 184//99 179//99 155//99
f 152//100 151//100 180//100 159//100
f 164//101 183//101 181//101 163//101
f 172//102 176//102 182//102 167//102
f 174//103 178//103 184//103 169//103
f 166//99 185//99 186//99 171//99
f 168//93 187//93 188//93 173//93
f 170//101 189//101 190//101 153//101
f 171//103 186//103 191//103 157//103
f 173//96 188//96 192//96 161//96
f 153//98 190//98 193//98 154//98
f 157//94 191//94 194//94 158//94
f 161//100 192//100 195//100 162//100
f 165//95 196//95 185//95 166//95
f 154//102 193//102 187//102 168//102
f 158//97 194//97 189//97 170//97
f 162//91 195//91 196//91 165//91
f 197//91 198//91 199//91 200//91
f 197//104 201//104 202//104 203//104
f 204//104 205//104 206//104 207//104
f 208//104 209//104 210//104 211//104
f 212//104 213//104 214//104 215//104
f 201//104 216//104 217//104 202//104
f 205//104 198//104 218//104 206//104
f 209//104 212//104 215//104 210//104
f 213//104 219//104 220//104 214//104
f 216//104 221//104 222//104 217//104
f 198//104 197//104 203//104 218//104
f 219//104 204//104 207//104 220//104
f 221//104 208//104 211//104 222//104
f 204//93 219//93 223//93 224//93
f 208//94 221//94 225//94 226//94
f 201//95 197//95 200//95 227//95
f 205//96 204//96 224//96 228//96
f 209//97 208//97 226//97 229//97
f 213//98 212//98 230//98 231//98
f 216//99 201//99 227//99 232//99
f 198//100 205//100 228//100 199//100
f 212//101 209//101 229//101 230//101
f 219//102 213//102 231//102 223//102
f 221//103 216//103 232//103 225//103
f 214//99 220//99 233//99 234//99
f 217//93 222//93 235//93 236//93
f 218//101 203//101 237//101 238//101
f 220//103 207//103 239//103 233//103
f 222//96 211//96 240//96 235//96
f 203//98 202//98 241//98 237//98
f 207//94 206//94 242//94 239//94
f 211//100 210//100 243//100 240//100
f 215//95 214//95 234//95 244//95
f 202//102 217//102 236//102 241//102
f 206//97 218//97 238//97 242//97
f 210//91 215//91 244//91 243//91
usemtl Material.002
f 182//92 176//92 175//92 180//92 151//92 150//92 179//92 184//92 178//92 177//92 181//92 183//92
f 231//104 230//104 229//104 226//104 225//104 232//104 227//104 200//104 199//104 228//104 224//104 223//104
o Circle.001_Circle
v -1.231113 0.087078 0.897553
v -1.231113 0.087078 0.877955
v -1.336122 0.115215 0.877955
v -1.336122 0.115215 0.897553
v -1.231113 0.001638 0.897553
v -1.083385 0.041222 0.897553
v -1.126105 0.115215 0.897553
v -1.441130 0.297095 0.897553
v -1.526570 0.297095 0.897553
v -1.486987 0.149366 0.897553
v -1.412993 0.192087 0.897553
v -1.049233 0.402103 0.897553
v -0.975240 0.444823 0.897553
v -1.083385 0.552968 0.897553
v -1.126105 0.478975 0.897553
v -1.231113 0.507112 0.897553
v -1.231113 0.592552 0.897553
v -1.378842 0.552968 0.897553
v -1.336122 0.478975 0.897553
v -0.975240 0.149366 0.897553
v -1.049234 0.192087 0.897553
v -1.378842 0.041222 0.897553
v -1.486987 0.444824 0.897553
v -1.412993 0.402103 0.897553
v -0.935656 0.297095 0.897553
v -1.021097 0.297095 0.897553
v -1.441130 0.297095 0.877955
v -1.412993 0.402103 0.877955
v -1.049233 0.402103 0.877955
v -1.021097 0.297095 0.877955
v -1.126105 0.115215 0.877955
v -1.412993 0.192087 0.877955
v -1.126105 0.478975 0.877955
v -1.336122 0.478975 0.877955
v -1.231113 0.507112 0.877955
v -1.049234 0.192087 0.877955
v -1.378842 0.552968 0.697553
v -1.486987 0.444824 0.697553
v -0.975240 0.149366 0.697553
v -0.935656 0.297095 0.697553
v -1.378842 0.041222 0.697553
v -1.231113 0.001638 0.697553
v -1.526570 0.297095 0.697553
v -0.975240 0.444823 0.697553
v -1.083385 0.041222 0.697553
v -1.486987 0.149366 0.697553
v -1.083385 0.552968 0.697553
v -1.231113 0.592552 0.697553
v -1.231113 0.087078 -0.897553
v -1.336122 0.115215 -0.897553
v -1.336122 0.115215 -0.877955
v -1.231113 0.087078 -0.877955
v -1.126105 0.115215 -0.897553
v -1.083385 0.041222 -0.897553
v -1.231113 0.001638 -0.897553
v -1.441130 0.297095 -0.897553
v -1.412993 0.192087 -0.897553
v -1.486987 0.149366 -0.897553
v -1.526570 0.297095 -0.897553
v -1.049233 0.402103 -0.897553
v -1.126105 0.478975 -0.897553
v -1.083385 0.552968 -0.897553
v -0.975240 0.444823 -0.897553
v -1.231113 0.507112 -0.897553
v -1.336122 0.478975 -0.897553
v -1.378842 0.552968 -0.897553
v -1.231113 0.592552 -0.897553
v -1.049234 0.192087 -0.897553
v -0.975240 0.149366 -0.897553
v -1.378842 0.041222 -0.897553
v -1.412993 0.402103 -0.897553
v -1.486987 0.444824 -0.897553
v -1.021097 0.297095 -0.897553
v -0.935656 0.297095 -0.897553
v -1.412993 0.402103 -0.877955
v -1.441130 0.297095 -0.877955
v -1.021097 0.297095 -0.877955
v -1.049233 0.402103 -0.877955
v -1.126105 0.115215 -0.877955
v -1.412993 0.192087 -0.877955
v -1.126105 0.478975 -0.877955
v -1.231113 0.507112 -0.877955
v -1.336122 0.478975 -0.877955
v -1.049234 0.192087 -0.877955
v -1.486987 0.444824 -0.697553
v -1.378842 0.552968 -0.697553
v -0.935656 0.297095 -0.697553
v -0.975240 0.149366 -0.697553
v -1.231113 0.001638 -0.697553
v -1.378842 0.041222 -0.697553
v -1.526570 0.297095 -0.697553
v -0.975240 0.444823 -0.697553
v -1.083385 0.041222 -0.697553
v -1.486987 0.149366 -0.697553
v -1.083385 0.552968 -0.697553
v -1.231113 0.592552 -0.697553
vn 0.2588 0.9659 0.0000
vn 0.0000 0.0000 1.0000
vn 0.9659 -0.2588 0.0000
vn -0.9659 -0.2588 0.0000
vn -0.2588 0.9659 0.0000
vn 0.9659 0.2588 0.0000
vn -0.7071 -0.7071 0.0000
vn 0.2588 -0.9659 0.0000
vn -0.7071 0.7071 0.0000
vn 0.7071 0.7071 0.0000
vn -0.2588 -0.9659 0.0000
vn 0.7071 -0.7071 0.0000
vn -0.9659 0.2588 0.0000
vn -0.0000 0.0000 -1.0000
usemtl Material.001
s 1
f 245//105 246//105 247//105 248//105
f 245//106 249//106 250//106 251//106
f 252//106 253//106 254//106 255//106
f 256//106 257//106 258//106 259//106
f 260//106 261//106 262//106 263//106
f 251//106 250//106 264//106 265//106
f 255//106 254//106 266//106 248//106
f 259//106 258//106 261//106 260//106
f 263//106 262//106 267//106 268//106
f 265//106 264//106 269//106 270//106
f 248//106 266//106 249//106 245//106
f 268//106 267//106 253//106 252//106
f 270//106 269//106 257//106 256//106
f 252//107 271//107 272//107 268//107
f 256//108 273//108 274//108 270//108
f 251//109 275//109 246//109 245//109
f 255//110 276//110 271//110 252//110
f 259//111 277//111 273//111 256//111
f 263//112 278//112 279//112 260//112
f 265//113 280//113 275//113 251//113
f 248//114 247//114 276//114 255//114
f 260//115 279//115 277//115 259//115
f 268//116 272//116 278//116 263//116
f 270//117 274//117 280//117 265//117
f 262//113 281//113 282//113 267//113
f 264//107 283//107 284//107 269//107
f 266//115 285//115 286//115 249//115
f 267//117 282//117 287//117 253//117
f 269//110 284//110 288//110 257//110
f 249//112 286//112 289//112 250//112
f 253//108 287//108 290//108 254//108
f 257//114 288//114 291//114 258//114
f 261//109 292//109 281//109 262//109
f 250//116 289//116 283//116 264//116
f 254//111 290//111 285//111 266//111
f 258//105 291//105 292//105 261//105
f 293//105 294//105 295//105 296//105
f 293//118 297//118 298//118 299//118
f 300//118 301//118 302//118 303//118
f 304//118 305//118 306//118 307//118
f 308//118 309//118 310//118 311//118
f 297//118 312//118 313//118 298//118
f 301//118 294//118 314//118 302//118
f 305//118 308//118 311//118 306//118
f 309//118 315//118 316//118 310//118
f 312//118 317//118 318//118 313//118
f 294//118 293//118 299//118 314//118
f 315//118 300//118 303//118 316//118
f 317//118 304//118 307//118 318//118
f 300//107 315//107 319//107 320//107
f 304//108 317//108 321//108 322//108
f 297//109 293//109 296//109 323//109
f 301//110 300//110 320//110 324//110
f 305//111 304//111 322//111 325//111
f 309//112 308//112 326//112 327//112
f 312//113 297//113 323//113 328//113
f 294//114 301//114 324//114 295//114
f 308//115 305//115 325//115 326//115
f 315//116 309//116 327//116 319//116
f 317//117 312//117 328//117 321//117
f 310//113 316//113 329//113 330//113
f 313//107 318//107 331//107 332//107
f 314//115 299//115 333//115 334//115
f 316//117 303//117 335//117 329//117
f 318//110 307//110 336//110 331//110
f 299//112 298//112 337//112 333//112
f 303//108 302//108 338//108 335//108
f 307//114 306//114 339//114 336//114
f 311//109 310//109 330//109 340//109
f 298//116 313//116 332//116 337//116
f 302//111 314//111 334//111 338//111
f 306//105 311//105 340//105 339//105
usemtl Material.002
f 278//106 272//106 271//106 276//106 247//106 246//106 275//106 280//106 274//106 273//106 277//106 279//106
f 327//118 326//118 325//118 322//118 321//118 328//118 323//118 296//118 295//118 324//118 320//118 319//118
